<svg width="105" height="105" viewBox="0 0 105 105" fill="none" xmlns="http://www.w3.org/2000/svg">
<path d="M44.1088 75.2952L81.4202 37.9838L77.2917 33.8552L44.1088 67.0381L27.4837 50.4131L23.3552 54.5417L44.1088 75.2952ZM52.519 105C45.2594 105 38.4339 103.622 32.0425 100.867C25.6521 98.1118 20.0929 94.3726 15.365 89.6496C10.6371 84.9265 6.89451 79.3722 4.13729 72.9867C1.3791 66.6021 0 59.7795 0 52.519C0 45.2594 1.37764 38.4339 4.13292 32.0425C6.88819 25.6521 10.6274 20.0929 15.3504 15.365C20.0735 10.6371 25.6278 6.89451 32.0133 4.13729C38.3979 1.3791 45.2205 0 52.481 0C59.7406 0 66.5661 1.37764 72.9575 4.13292C79.3479 6.8882 84.9071 10.6274 89.635 15.3504C94.3629 20.0735 98.1055 25.6278 100.863 32.0133C103.621 38.3979 105 45.2205 105 52.481C105 59.7406 103.622 66.5661 100.867 72.9575C98.1118 79.3479 94.3726 84.9071 89.6496 89.635C84.9265 94.3629 79.3722 98.1055 72.9867 100.863C66.6021 103.621 59.7795 105 52.519 105ZM52.5 99.1667C65.5278 99.1667 76.5625 94.6458 85.6042 85.6042C94.6458 76.5625 99.1667 65.5278 99.1667 52.5C99.1667 39.4722 94.6458 28.4375 85.6042 19.3958C76.5625 10.3542 65.5278 5.83333 52.5 5.83333C39.4722 5.83333 28.4375 10.3542 19.3958 19.3958C10.3542 28.4375 5.83333 39.4722 5.83333 52.5C5.83333 65.5278 10.3542 76.5625 19.3958 85.6042C28.4375 94.6458 39.4722 99.1667 52.5 99.1667Z" fill="#37C83D"/>
</svg>
