<svg width="24" height="24" viewBox="0 0 24 24" fill="none" xmlns="http://www.w3.org/2000/svg">
<mask id="mask0_209_182" style="mask-type:alpha" maskUnits="userSpaceOnUse" x="0" y="0" width="24" height="24">
<rect width="24" height="24" fill="#D9D9D9"/>
</mask>
<g mask="url(#mask0_209_182)">
<path d="M19 9C19.2833 9 19.5208 8.90417 19.7125 8.7125C19.9042 8.52083 20 8.28333 20 8C20 7.71667 19.9042 7.47917 19.7125 7.2875C19.5208 7.09583 19.2833 7 19 7C18.7167 7 18.4792 7.09583 18.2875 7.2875C18.0958 7.47917 18 7.71667 18 8C18 8.28333 18.0958 8.52083 18.2875 8.7125C18.4792 8.90417 18.7167 9 19 9ZM18.9988 10C18.4316 10 17.9567 9.80875 17.574 9.42625C17.1913 9.04375 17 8.56983 17 8.0045C17 7.45017 17.1913 6.9775 17.5738 6.5865C17.9563 6.1955 18.4302 6 18.9955 6C19.5498 6 20.0225 6.19458 20.4135 6.58375C20.8045 6.97292 21 7.44542 21 8.00125C21 8.56842 20.8054 9.04333 20.4163 9.426C20.0271 9.80867 19.5546 10 18.9988 10ZM12 8C12.4167 8 12.7708 7.85833 13.0625 7.575C13.3542 7.29167 13.5 6.93333 13.5 6.5C13.5 6.08333 13.3542 5.72917 13.0625 5.4375C12.7708 5.14583 12.4167 5 12 5C11.5667 5 11.2083 5.14583 10.925 5.4375C10.6417 5.72917 10.5 6.08333 10.5 6.5C10.5 6.93333 10.6417 7.29167 10.925 7.575C11.2083 7.85833 11.5667 8 12 8ZM12.0013 9C11.2991 9 10.7067 8.7595 10.224 8.2785C9.74133 7.79767 9.5 7.20692 9.5 6.50625C9.5 5.81742 9.7405 5.2275 10.2215 4.7365C10.7023 4.2455 11.2931 4 11.9938 4C12.6826 4 13.2725 4.24392 13.7635 4.73175C14.2545 5.21958 14.5 5.80858 14.5 6.49875C14.5 7.20092 14.2561 7.79333 13.7682 8.276C13.2804 8.75867 12.6914 9 12.0013 9ZM7.4615 13.375C7.4615 13.9775 7.741 14.6377 8.3 15.3558C8.859 16.0738 9.9705 17.1898 11.6345 18.7038L12 19.0307L12.4038 18.6462C13.9704 17.2296 15.0512 16.1467 15.6462 15.3975C16.2411 14.6485 16.5385 13.9743 16.5385 13.375C16.5385 12.8415 16.3618 12.3893 16.0083 12.0183C15.6546 11.6471 15.2185 11.4615 14.7 11.4615C14.3885 11.4615 14.0936 11.5307 13.8152 11.6693C13.5371 11.8078 13.2993 11.9943 13.102 12.2288L12.075 13.4615H11.9192L10.873 12.2288C10.6757 11.9943 10.4408 11.8078 10.1683 11.6693C9.89575 11.5307 9.60633 11.4615 9.3 11.4615C8.75783 11.4615 8.31592 11.6471 7.97425 12.0183C7.63242 12.3893 7.4615 12.8415 7.4615 13.375ZM6.4615 13.375C6.4615 12.6198 6.73908 11.9455 7.29425 11.352C7.84942 10.7583 8.518 10.4615 9.3 10.4615C9.791 10.4615 10.2483 10.5782 10.672 10.8115C11.0958 11.0448 11.4552 11.3487 11.75 11.723L12 12.0115L12.25 11.7038C12.5577 11.3423 12.9192 11.0448 13.3345 10.8115C13.75 10.5782 14.2052 10.4615 14.7 10.4615C15.4692 10.4615 16.1346 10.7601 16.6962 11.3573C17.2577 11.9543 17.5385 12.6268 17.5385 13.375C17.5385 14.1558 17.2337 14.9529 16.624 15.7662C16.0143 16.5798 14.8268 17.7923 13.0615 19.4038L12 20.3845L10.977 19.4615C9.15267 17.782 7.944 16.5461 7.351 15.7537C6.758 14.9616 6.4615 14.1687 6.4615 13.375ZM5 9C5.28333 9 5.52083 8.90417 5.7125 8.7125C5.90417 8.52083 6 8.28333 6 8C6 7.71667 5.90417 7.47917 5.7125 7.2875C5.52083 7.09583 5.28333 7 5 7C4.71667 7 4.47917 7.09583 4.2875 7.2875C4.09583 7.47917 4 7.71667 4 8C4 8.28333 4.09583 8.52083 4.2875 8.7125C4.47917 8.90417 4.71667 9 5 9ZM12.075 21V20H20V13.6155C20 13.4488 19.9391 13.3046 19.8173 13.1827C19.6954 13.0609 19.5512 13 19.3845 13H17.127V12H19.3845C19.8288 12 20.2092 12.1582 20.5255 12.4745C20.8418 12.7908 21 13.1712 21 13.6155V21H12.075ZM4 20H12.075V21H3V13.6207C3 13.1697 3.15483 12.7868 3.4645 12.472C3.774 12.1573 4.15767 12 4.6155 12H6.873V13H4.6155C4.436 13 4.2885 13.0609 4.173 13.1827C4.05767 13.3046 4 13.4488 4 13.6155V20ZM4.99875 10C4.43158 10 3.95667 9.80875 3.574 9.42625C3.19133 9.04375 3 8.56983 3 8.0045C3 7.45017 3.19125 6.9775 3.57375 6.5865C3.95625 6.1955 4.43017 6 4.9955 6C5.54983 6 6.0225 6.19458 6.4135 6.58375C6.8045 6.97292 7 7.44542 7 8.00125C7 8.56842 6.80542 9.04333 6.41625 9.426C6.02708 9.80867 5.55458 10 4.99875 10Z" fill="#005a45"/>
</g>
</svg>
