<svg width="24" height="24" viewBox="0 0 24 24" fill="none" xmlns="http://www.w3.org/2000/svg">
<mask id="mask0_209_203" style="mask-type:alpha" maskUnits="userSpaceOnUse" x="0" y="0" width="24" height="24">
<rect width="24" height="24" fill="#D9D9D9"/>
</mask>
<g mask="url(#mask0_209_203)">
<path d="M5.69225 19V9.94625L2.60375 12.25L2 11.4577L12 4L16.3462 7.223V5H18.2307V8.6385L22.0193 11.4577L21.4155 12.25L18.327 9.94625V19H13.2308V13.7692H10.7692V19H5.69225ZM6.69225 18H9.76925V12.7692H14.2308V18H17.327V9.2095L12 5.25575L6.69225 9.2095V18ZM10.1923 10.0057H13.8077C13.8077 9.53658 13.627 9.15033 13.2655 8.847C12.9038 8.54383 12.482 8.39225 12 8.39225C11.518 8.39225 11.0962 8.54333 10.7345 8.8455C10.373 9.1475 10.1923 9.53425 10.1923 10.0057Z" fill="#005a45"/>
</g>
</svg>
