<svg width="40" height="40" viewBox="0 0 40 40" fill="none" xmlns="http://www.w3.org/2000/svg">
<mask id="mask0_234_777" style="mask-type:alpha" maskUnits="userSpaceOnUse" x="0" y="0" width="40" height="40">
<rect width="40" height="40" fill="#D9D9D9"/>
</mask>
<g mask="url(#mask0_234_777)">
<path d="M18.25 24.7629L26.513 16.5L25.3238 15.3108L18.25 22.3845L14.6859 18.8204L13.4967 20.0095L18.25 24.7629ZM20 34.9358C16.6517 33.9422 13.8702 31.9139 11.6555 28.8508C9.44074 25.7877 8.33337 22.3375 8.33337 18.5V9.48705L20 5.1283L31.6667 9.48705V18.5C31.6667 22.3375 30.5593 25.7877 28.3446 28.8508C26.1299 31.9139 23.3484 33.9422 20 34.9358ZM20 33.1666C22.8889 32.25 25.2778 30.4166 27.1667 27.6666C29.0556 24.9166 30 21.8611 30 18.5V10.625L20 6.90705L10 10.625V18.5C10 21.8611 10.9445 24.9166 12.8334 27.6666C14.7223 30.4166 17.1112 32.25 20 33.1666Z" fill="#005a45"/>
</g>
</svg>
